<?xml version="1.0" encoding="utf-8"?>
<!-- Generator: Adobe Illustrator 19.0.0, SVG Export Plug-In . SVG Version: 6.00 Build 0)  -->
<svg version="1.1" id="Calque_1" xmlns="http://www.w3.org/2000/svg" xmlns:xlink="http://www.w3.org/1999/xlink" x="0px" y="0px"
	 viewBox="0 0 132.3 118.8" style="enable-background:new 0 0 132.3 118.8;" xml:space="preserve">
<style type="text/css">
	.st0{fill:#9B9139;}
	.st1{fill:#FFFFFF;}
</style>
<g id="XMLID_2_">
	<path id="XMLID_6_" class="st0" d="M69,97.2c22.1,0,40-17.9,40-40c0-22.1-17.9-40-40-40s-40,17.9-40,40C29,79.3,46.9,97.2,69,97.2"
		/>
	<path id="XMLID_3_" class="st1" d="M69.2,86.2c-10.3,0-19.4-5.4-24.7-13.2c0-8.2,16.5-12.8,24.7-12.8S93.9,64.7,93.9,73
		C88.6,80.8,79.5,86.2,69.2,86.2 M69.2,27.6c7,0,12.4,5.4,12.4,12.4c0,7-5.4,12.4-12.4,12.4S56.8,47,56.8,40
		C56.8,33,62.2,27.6,69.2,27.6"/>
</g>
</svg>
