<?xml version="1.0" encoding="utf-8"?>
<!-- Generator: Adobe Illustrator 19.0.0, SVG Export Plug-In . SVG Version: 6.00 Build 0)  -->
<svg version="1.1" id="Calque_1" xmlns="http://www.w3.org/2000/svg" xmlns:xlink="http://www.w3.org/1999/xlink" x="0px" y="0px"
	 viewBox="0 0 132.3 118.8" style="enable-background:new 0 0 132.3 118.8;" xml:space="preserve">
<style type="text/css">
	.st0{clip-path:url(#XMLID_20_);fill:#9B9139;}
	.st1{clip-path:url(#XMLID_20_);fill:#FFFFFF;}
</style>
<g id="XMLID_3_">
	<defs>
		<rect id="XMLID_4_" x="27.8" y="16.8" width="80" height="80"/>
	</defs>
	<clipPath id="XMLID_20_">
		<use xlink:href="#XMLID_4_"  style="overflow:visible;"/>
	</clipPath>
	<path id="XMLID_28_" class="st0" d="M67.8,96.8c22.1,0,40-17.9,40-40s-17.9-40-40-40s-40,17.9-40,40S45.7,96.8,67.8,96.8"/>
	<path id="XMLID_5_" class="st1" d="M93.3,73.8c0,1.2-0.8,1.9-1.9,1.9H45.3c-1.2,0-1.9-0.8-1.9-1.9V62.3c0-1.2,0.8-1.9,1.9-1.9h3.8
		c1.2,0,1.9,0.8,1.9,1.9v4.8c0,0.6,0.4,1,1,1h32.6c0.6,0,1-0.4,1-1v-4.8c0-1.2,0.8-1.9,1.9-1.9h3.8c1.2,0,1.9,0.8,1.9,1.9V73.8z
		 M55.4,45.6l2.7-2.7c0.4-0.4,0.8-0.6,1.3-0.6s1,0.2,1.3,0.6l1.9,1.9c0.6,0.6,1.7,0.2,1.7-0.8V31.5c0-1.2,0.8-1.9,1.9-1.9h3.8
		c1.2,0,1.9,0.8,1.9,1.9v12.7c0,0.8,1,1.3,1.7,0.8l1.9-1.9c0.4-0.4,0.8-0.6,1.3-0.6c0.6,0,1,0.2,1.3,0.6l2.7,2.7
		c0.4,0.4,0.6,0.8,0.6,1.3s-0.2,1-0.6,1.3L69.7,60c-0.4,0.4-1,0.6-1.3,0.6s-1-0.2-1.3-0.6L55.4,48.4c-0.4-0.4-0.6-0.8-0.6-1.3
		C54.9,46.3,55.1,45.9,55.4,45.6"/>
</g>
</svg>
