<?xml version="1.0" encoding="utf-8"?>
<!-- Generator: Adobe Illustrator 19.0.0, SVG Export Plug-In . SVG Version: 6.00 Build 0)  -->
<svg version="1.1" id="Calque_1" xmlns="http://www.w3.org/2000/svg" xmlns:xlink="http://www.w3.org/1999/xlink" x="0px" y="0px"
	 viewBox="0 0 132.3 118.8" style="enable-background:new 0 0 132.3 118.8;" xml:space="preserve">
<style type="text/css">
	.st0{clip-path:url(#XMLID_3_);fill:#9B9139;}
	.st1{clip-path:url(#XMLID_3_);fill:#FFFFFF;}
</style>
<g id="XMLID_20_">
	<defs>
		<rect id="XMLID_21_" x="27.5" y="17.2" width="80" height="80"/>
	</defs>
	<clipPath id="XMLID_3_">
		<use xlink:href="#XMLID_21_"  style="overflow:visible;"/>
	</clipPath>
	<path id="XMLID_27_" class="st0" d="M67.5,97.2c22.1,0,40-17.9,40-40s-17.9-40-40-40s-40,17.9-40,40S45.4,97.2,67.5,97.2"/>
	<path id="XMLID_23_" class="st1" d="M89.3,46.7H45.7v-0.9c0-1.3,1.1-2.4,2.4-2.4h38.7c1.3,0,2.4,1.1,2.4,2.4V46.7z M89.3,70
		c0,1.3-1.1,2.4-2.4,2.4H48.2c-1.3,0-2.4-1.1-2.4-2.4V53.1h43.6V70z M86.2,39.2h-38c-3.7,0-6.7,3-6.7,6.7v24c0,3.7,3,6.7,6.7,6.7h38
		c3.7,0,6.7-3,6.7-6.7v-24C92.9,42.2,89.9,39.2,86.2,39.2"/>
	<path id="XMLID_22_" class="st1" d="M52.6,69.8c1.3,0,2.5-0.6,3.3-1.5c0.8,0.9,2,1.5,3.3,1.5c2.4,0,4.3-1.9,4.3-4.3
		c0-2.4-1.9-4.3-4.3-4.3c-1.3,0-2.5,0.6-3.3,1.5c-0.8-0.9-2-1.5-3.3-1.5c-2.4,0-4.3,1.9-4.3,4.3C48.3,67.9,50.2,69.8,52.6,69.8"/>
</g>
</svg>
